<?xml version="1.0" standalone="no"?>
<!DOCTYPE svg PUBLIC "-//W3C//DTD SVG 20010904//EN"
 "http://www.w3.org/TR/2001/REC-SVG-20010904/DTD/svg10.dtd">
<svg version="1.0" xmlns="http://www.w3.org/2000/svg"
 width="500.000000pt" height="500.000000pt" viewBox="0 0 500.000000 500.000000"
 preserveAspectRatio="xMidYMid meet">
<metadata>
Created by potrace 1.11, written by Peter Selinger 2001-2013
</metadata>
<g transform="translate(0.000000,500.000000) scale(0.100000,-0.100000)"
fill="#000000" stroke="none">
<path d="M191 4989 c-84 -25 -148 -88 -175 -174 -15 -45 -16 -257 -14 -2335
l3 -2285 24 -48 c13 -26 41 -63 63 -82 83 -70 -117 -65 2422 -63 l2291 3 49
25 c62 32 109 87 130 153 15 48 16 244 14 2337 l-3 2285 -23 45 c-32 60 -66
95 -121 122 l-46 23 -2290 2 c-1459 1 -2302 -2 -2324 -8z"/>
</g>
</svg>
